# xmcd CD database file
#
# Track frame offsets:
#	150
#	22773
#	39725
#	54306
#	76003
#	96164
#	115718
#	139180
#	159939
#	182574
#	199922
#	216827
#
# Disc length: 3106 seconds
#
# Revision: 0
# Processed by: cddbd v1.5.2PL0 Copyright (c) Steve Scherf et al.
# Submitted via: CDex 1.51
#
DISCID=920c200c
DTITLE=Jaqueline Boulanger - Leise rieselt irgendwas...
DYEAR=2007
DGENRE=Jazz
TTITLE0=The Christmas Song
TTITLE1=Leise rieselt der Schnee
TTITLE2=Winter Wonderland
TTITLE3=The greatest Gift of Al
TTITLE4=O Du Fröhliche
TTITLE5=O Tannenbaum
TTITLE6=Hard Candy Christmas
TTITLE7=It must have been the Mistletoe
TTITLE8=Willkommen Liebster (What are You doing New Year's Eve)
TTITLE9=White Christmas
TTITLE10=Alle Jahre wieder
TTITLE11=Angeks from the Realms of Glory
EXTD=YEAR: 2007
EXTT0=
EXTT1=
EXTT2=
EXTT3=
EXTT4=
EXTT5=
EXTT6=
EXTT7=
EXTT8=
EXTT9=
EXTT10=
EXTT11=
PLAYORDER=
